<svg width="946" height="385" viewBox="0 0 946 385" fill="none" xmlns="http://www.w3.org/2000/svg">
<path d="M220.352 175.745C172.363 212.366 152.095 250.571 163.279 283.322C177.632 325.35 241.396 354.409 338.222 363.048L338.579 360.637C243.102 352.119 180.311 323.712 166.305 282.701C155.42 250.828 175.394 213.458 222.548 177.473L220.352 175.745Z" fill="#B09DF4"/>
<path d="M683.365 45.7497C623.472 45.7497 558.387 52.6493 493.74 65.9165C413.794 82.3231 340.493 107.087 281.761 137.532L283.5 139.548C341.95 109.251 414.926 84.6001 494.54 68.2622C566.487 53.4963 638.973 46.6548 704.135 48.4603L704.248 46.0363C697.367 45.8444 690.406 45.7489 683.365 45.7497Z" fill="#B09DF4"/>
<path d="M820.767 61.0072L819.765 63.3054C873.331 77.3451 906.835 99.9612 916.653 128.711C929.135 165.259 902.019 207.67 840.301 248.133C778.268 288.802 688.816 322.546 588.418 343.149L589.219 345.495C690.055 324.801 779.943 290.882 842.322 249.985C905.014 208.884 932.488 165.594 919.679 128.09C909.579 98.5159 875.376 75.3193 820.767 61.0072Z" fill="#B09DF4"/>
<path d="M328.904 44.7356C211.217 85.1972 120.531 137.691 73.5513 192.548L76.1584 193.89C122.813 139.413 213.024 87.2301 330.172 46.9534L328.904 44.7356Z" fill="#B09DF4"/>
<path d="M742.68 -25.3606C730.541 -25.3606 718.195 -25.1505 705.642 -24.7304L705.776 -22.3065C799.459 -25.4506 882.116 -16.7598 944.829 2.83124L946 0.580304C891.294 -16.5075 821.566 -25.3606 742.68 -25.3606Z" fill="#B09DF4"/>
<path d="M674.73 360.929C663.294 363.672 651.531 366.226 639.768 368.521C572.076 381.724 505.533 386.412 447.333 382.075L447.147 383.424C505.565 387.775 572.335 383.076 640.238 369.831C652.035 367.53 663.831 364.969 675.3 362.217L674.73 360.929Z" fill="#B09DF4"/>
<path d="M146.801 172.105C98.8122 208.727 78.5438 246.932 89.7283 279.682C104.082 321.711 167.846 350.77 264.671 359.408L265.029 356.998C169.551 348.48 106.76 320.073 92.7542 279.062C81.8693 247.189 101.843 209.818 148.997 173.834L146.801 172.105Z" fill="#B09DF4"/>
<path d="M609.814 42.1105C549.92 42.1105 484.836 49.01 420.188 62.2772C340.243 78.6838 266.942 103.448 208.209 133.893L209.949 135.909C268.398 105.612 341.375 80.9608 420.989 64.6229C492.936 49.8571 565.421 43.0155 630.584 44.821L630.697 42.3971C623.815 42.2052 616.854 42.1097 609.814 42.1105Z" fill="#B09DF4"/>
<path d="M747.216 57.3679L746.213 59.6662C799.78 73.7058 833.283 96.322 843.102 125.072C855.583 161.62 828.468 204.031 766.75 244.494C704.717 285.162 615.265 318.907 514.867 339.51L515.668 341.856C616.504 321.162 706.392 287.243 768.77 246.346C831.463 205.245 858.936 161.955 846.128 124.451C836.028 94.8767 801.824 71.68 747.216 57.3679Z" fill="#B09DF4"/>
<path d="M255.352 41.0964C137.666 81.558 46.9795 134.052 0 188.909L2.60721 190.251C49.262 135.774 139.472 83.5908 256.621 43.3141L255.352 41.0964Z" fill="#B09DF4"/>
<path d="M601.209 357.01C584.38 360.2 567.07 363.17 549.759 365.838C450.145 381.191 352.224 386.642 266.577 381.599L266.305 383.167C352.271 388.227 450.527 382.763 550.452 367.362C567.811 364.686 585.17 361.708 602.047 358.509L601.209 357.01Z" fill="#B09DF4"/>
</svg>
