<svg width="583" height="332" viewBox="0 0 583 332" fill="none" xmlns="http://www.w3.org/2000/svg">
<path d="M351.781 293.941L330.751 299.181L351.933 287.081C351.477 267.791 344.229 247.789 344.229 247.789C344.229 247.789 298.962 259.972 287.081 281.067C275.2 302.163 284.552 316.09 301.206 324.184C317.859 332.277 335.507 331.473 347.388 310.377C350.032 305.681 351.341 299.975 351.781 293.941Z" fill="#F2F2F2"/>
<path d="M326.731 298.064L326.145 299.104C319.272 311.159 311.766 319.523 303.721 324.071C303.605 324.139 303.486 324.199 303.37 324.268L303.042 323.76L302.732 323.269C311.547 318.42 318.946 309.105 324.944 298.592C325.141 298.255 325.341 297.913 325.529 297.566C328.026 293.094 330.275 288.437 332.274 283.822C332.432 283.466 332.588 283.103 332.743 282.739C335.348 276.635 337.519 270.648 339.26 265.377C339.385 265.005 339.504 264.63 339.621 264.26C342.527 255.327 344.14 248.616 344.485 247.125C344.531 246.944 344.553 246.843 344.559 246.82L345.163 246.937L345.172 246.934L345.782 247.054C345.776 247.077 345.705 247.416 345.553 248.037C344.998 250.364 343.422 256.646 340.824 264.681C340.705 265.043 340.585 265.418 340.46 265.79C339.053 270.069 337.37 274.798 335.405 279.666C334.914 280.889 334.415 282.089 333.908 283.265C333.758 283.632 333.602 283.996 333.444 284.351C331.284 289.34 329.046 293.911 326.731 298.064Z" fill="white"/>
<path d="M340.824 264.681C340.426 264.547 340.023 264.41 339.621 264.26C338.526 263.855 337.455 263.398 336.411 262.891C331.96 260.734 328.085 257.677 325.074 253.945C324.688 254.105 324.302 254.265 323.907 254.427C327.051 258.394 331.13 261.641 335.831 263.92C336.946 264.462 338.09 264.948 339.26 265.377C339.657 265.524 340.06 265.661 340.46 265.79C343.755 266.871 347.207 267.481 350.699 267.599C350.62 267.2 350.544 266.809 350.471 266.426C347.18 266.289 343.929 265.701 340.824 264.681Z" fill="white"/>
<path d="M333.908 283.265C333.514 283.1 333.126 282.925 332.743 282.739C332.624 282.687 332.502 282.628 332.386 282.572C327.565 280.229 323.426 276.838 320.321 272.689C317.216 268.539 315.238 263.753 314.554 258.74C314.161 258.936 313.769 259.132 313.379 259.335C314.154 264.449 316.23 269.318 319.435 273.537C322.64 277.757 326.88 281.207 331.806 283.601C331.961 283.677 332.116 283.752 332.274 283.822C332.665 284.006 333.053 284.181 333.444 284.352C339.519 286.945 346.27 287.859 352.89 286.983C352.883 286.593 352.877 286.203 352.865 285.811C346.414 286.694 339.826 285.809 333.908 283.265Z" fill="white"/>
<path d="M326.731 298.064C326.326 297.907 325.926 297.739 325.53 297.566C325.105 297.379 324.684 297.187 324.268 296.985C317.795 293.83 312.596 288.813 309.449 282.683C306.303 276.554 305.378 269.642 306.814 262.984C306.33 263.279 305.848 263.57 305.375 263.871C304.177 270.628 305.302 277.564 308.59 283.693C311.877 289.823 317.16 294.834 323.688 298.015C324.104 298.217 324.522 298.414 324.944 298.592C325.343 298.773 325.743 298.941 326.145 299.104C334.301 302.343 343.477 302.581 351.814 299.771C351.913 299.333 351.991 298.893 352.073 298.447C343.893 301.386 334.803 301.248 326.731 298.064Z" fill="white"/>
<path d="M75.6215 295.77L96.6509 301.011L75.4694 288.911C75.925 269.621 83.1727 249.619 83.1727 249.619C83.1727 249.619 128.44 261.801 140.321 282.897C152.202 303.993 142.85 317.92 126.196 326.014C109.543 334.107 91.8948 333.302 80.0142 312.206C77.3698 307.511 76.0613 301.804 75.6215 295.77Z" fill="#F2F2F2"/>
<path d="M100.671 299.894L101.257 300.934C108.13 312.988 115.636 321.353 123.681 325.901C123.797 325.969 123.916 326.029 124.032 326.097L124.361 325.59L124.67 325.099C115.855 320.25 108.456 310.935 102.458 300.422C102.261 300.085 102.061 299.743 101.873 299.395C99.3756 294.924 97.1268 290.267 95.1278 285.652C94.9697 285.296 94.8143 284.932 94.6588 284.568C92.0542 278.465 89.8826 272.478 88.1419 267.207C88.0171 266.835 87.8978 266.46 87.7814 266.09C84.8746 257.156 83.2622 250.446 82.9166 248.955C82.871 248.774 82.8495 248.673 82.8434 248.649L82.2387 248.766L82.2303 248.764L81.62 248.883C81.6261 248.907 81.6971 249.246 81.8493 249.867C82.4044 252.194 83.9804 258.476 86.5785 266.511C86.6975 266.873 86.8168 267.247 86.9417 267.619C88.3494 271.899 90.0318 276.628 91.9966 281.496C92.4879 282.719 92.9872 283.919 93.4944 285.095C93.6443 285.461 93.7997 285.825 93.9578 286.181C96.1181 291.17 98.3558 295.741 100.671 299.894Z" fill="white"/>
<path d="M76.9314 268.255C76.8579 268.639 76.7817 269.03 76.7029 269.429C80.1947 269.311 83.647 268.701 86.9417 267.619C87.3419 267.49 87.7448 267.354 88.1419 267.207C89.3116 266.778 90.4561 266.291 91.5706 265.75C96.2722 263.471 100.351 260.224 103.495 256.257C103.1 256.094 102.714 255.935 102.328 255.775C99.3166 259.507 95.4425 262.564 90.9908 264.721C89.9469 265.228 88.8756 265.685 87.7814 266.09C87.3787 266.24 86.9758 266.377 86.5784 266.511C83.4728 267.53 80.222 268.118 76.9314 268.255Z" fill="white"/>
<path d="M74.5369 287.64C74.5251 288.033 74.5188 288.423 74.5125 288.813C81.1318 289.689 87.8826 288.775 93.9578 286.181C94.3488 286.011 94.737 285.835 95.1278 285.652C95.2859 285.582 95.441 285.506 95.5962 285.431C100.522 283.037 104.763 279.587 107.967 275.367C111.172 271.147 113.248 266.279 114.024 261.165C113.634 260.961 113.241 260.765 112.848 260.569C112.164 265.583 110.186 270.368 107.081 274.518C103.976 278.668 99.8367 282.059 95.0164 284.401C94.9 284.458 94.7781 284.517 94.6588 284.568C94.2764 284.754 93.8883 284.93 93.4943 285.095C87.5764 287.639 80.988 288.524 74.5369 287.64Z" fill="white"/>
<path d="M75.3293 300.277C75.4109 300.722 75.4895 301.163 75.5877 301.6C83.9253 304.41 93.1011 304.172 101.257 300.934C101.659 300.771 102.059 300.603 102.458 300.422C102.879 300.243 103.298 300.046 103.714 299.844C110.242 296.664 115.525 291.652 118.812 285.523C122.1 279.394 123.225 272.458 122.027 265.701C121.554 265.4 121.072 265.109 120.588 264.813C122.024 271.472 121.099 278.383 117.953 284.513C114.806 290.642 109.607 295.66 103.134 298.815C102.718 299.017 102.297 299.209 101.872 299.395C101.476 299.568 101.076 299.736 100.671 299.894C92.5988 303.078 83.5088 303.215 75.3293 300.277Z" fill="white"/>
<path d="M174.215 310.542L186.734 313.662L174.124 306.458C174.395 294.975 178.71 283.067 178.71 283.067C178.71 283.067 205.659 290.319 212.732 302.878C219.805 315.437 214.237 323.728 204.323 328.547C194.409 333.365 183.903 332.886 176.83 320.327C175.255 317.532 174.476 314.134 174.215 310.542Z" fill="#F2F2F2"/>
<path d="M189.127 312.997L189.476 313.616C193.568 320.792 198.036 325.772 202.826 328.479C202.895 328.52 202.966 328.556 203.035 328.596L203.23 328.295L203.414 328.002C198.166 325.115 193.762 319.57 190.191 313.311C190.074 313.111 189.955 312.907 189.843 312.7C188.356 310.038 187.017 307.266 185.827 304.518C185.733 304.306 185.641 304.09 185.548 303.873C183.997 300.24 182.705 296.676 181.668 293.537C181.594 293.316 181.523 293.093 181.454 292.873C179.723 287.554 178.763 283.559 178.558 282.672C178.53 282.564 178.518 282.504 178.514 282.49L178.154 282.559L178.149 282.558L177.786 282.629C177.789 282.643 177.832 282.845 177.922 283.215C178.253 284.6 179.191 288.34 180.738 293.123C180.808 293.339 180.879 293.562 180.954 293.783C181.792 296.331 182.793 299.146 183.963 302.044C184.256 302.772 184.553 303.487 184.855 304.187C184.944 304.405 185.037 304.621 185.131 304.833C186.417 307.803 187.749 310.525 189.127 312.997Z" fill="white"/>
<path d="M174.994 294.162C174.951 294.39 174.905 294.623 174.858 294.86C176.937 294.79 178.992 294.427 180.954 293.783C181.192 293.706 181.432 293.625 181.668 293.537C182.365 293.282 183.046 292.992 183.71 292.67C186.509 291.313 188.937 289.38 190.809 287.018C190.574 286.922 190.344 286.827 190.114 286.732C188.321 288.953 186.015 290.773 183.364 292.057C182.743 292.359 182.105 292.631 181.454 292.873C181.214 292.962 180.974 293.043 180.738 293.123C178.889 293.73 176.953 294.08 174.994 294.162Z" fill="white"/>
<path d="M173.569 305.702C173.562 305.936 173.558 306.168 173.554 306.4C177.495 306.921 181.514 306.378 185.131 304.833C185.364 304.732 185.595 304.627 185.827 304.518C185.921 304.476 186.014 304.432 186.106 304.387C189.038 302.961 191.563 300.908 193.471 298.395C195.379 295.883 196.615 292.985 197.076 289.941C196.844 289.819 196.61 289.702 196.377 289.586C195.97 292.571 194.792 295.42 192.943 297.89C191.095 300.36 188.631 302.379 185.761 303.774C185.692 303.807 185.619 303.843 185.548 303.873C185.32 303.984 185.089 304.088 184.855 304.187C181.332 305.701 177.409 306.228 173.569 305.702Z" fill="white"/>
<path d="M174.041 313.225C174.089 313.49 174.136 313.752 174.195 314.013C179.158 315.686 184.621 315.544 189.476 313.616C189.716 313.519 189.953 313.419 190.191 313.311C190.442 313.205 190.691 313.088 190.939 312.968C194.825 311.074 197.97 308.091 199.927 304.442C201.884 300.793 202.554 296.664 201.841 292.641C201.559 292.462 201.273 292.289 200.985 292.113C201.839 296.077 201.289 300.191 199.416 303.84C197.542 307.489 194.447 310.476 190.593 312.355C190.346 312.475 190.095 312.589 189.843 312.7C189.606 312.803 189.369 312.903 189.127 312.997C184.322 314.892 178.91 314.974 174.041 313.225Z" fill="white"/>
<path d="M424.274 204.959L424.221 204.955C414.263 203.427 403.202 203.428 390.404 204.957H390.399C390.08 204.96 389.763 204.905 389.467 204.794C389.171 204.683 388.901 204.519 388.673 204.311C388.446 204.103 388.265 203.855 388.141 203.582C388.017 203.309 387.952 203.015 387.951 202.719V191.952C387.951 191.358 388.206 190.788 388.658 190.368C389.11 189.948 389.723 189.712 390.362 189.712C401.632 188.346 413.045 188.347 424.315 189.714H424.319C424.951 189.723 425.554 189.962 425.997 190.381C426.44 190.8 426.688 191.365 426.686 191.952V202.719C426.685 203.313 426.431 203.882 425.979 204.302C425.527 204.722 424.914 204.958 424.274 204.959Z" fill="white"/>
<path d="M424.274 204.959L424.221 204.955C414.263 203.427 403.202 203.428 390.404 204.957H390.399C390.08 204.96 389.763 204.905 389.467 204.794C389.171 204.683 388.901 204.519 388.673 204.311C388.446 204.103 388.265 203.855 388.141 203.582C388.017 203.309 387.952 203.015 387.951 202.719V191.952C387.951 191.358 388.206 190.788 388.658 190.368C389.11 189.948 389.723 189.712 390.362 189.712C401.632 188.346 413.045 188.347 424.315 189.714H424.319C424.951 189.723 425.554 189.962 425.997 190.381C426.44 190.8 426.688 191.365 426.686 191.952V202.719C426.685 203.313 426.431 203.882 425.979 204.302C425.527 204.722 424.914 204.958 424.274 204.959ZM406.888 189.3C401.376 189.291 395.869 189.631 390.407 190.318C390.173 190.315 389.941 190.355 389.723 190.435C389.506 190.515 389.308 190.635 389.141 190.787C388.973 190.939 388.84 191.12 388.749 191.32C388.657 191.52 388.609 191.735 388.607 191.952V202.719C388.608 203.151 388.793 203.565 389.122 203.871C389.451 204.177 389.897 204.349 390.362 204.349C403.171 202.817 414.286 202.816 424.3 204.349C424.761 204.342 425.2 204.167 425.524 203.862C425.847 203.557 426.029 203.147 426.029 202.719V191.952C426.029 191.52 425.844 191.105 425.515 190.8C425.186 190.494 424.74 190.322 424.274 190.321C418.507 189.649 412.7 189.308 406.888 189.3Z" fill="#6C63FF"/>
<path d="M407.318 201.091C409.856 201.091 411.914 199.179 411.914 196.821C411.914 194.463 409.856 192.552 407.318 192.552C404.78 192.552 402.723 194.463 402.723 196.821C402.723 199.179 404.78 201.091 407.318 201.091Z" fill="#6C63FF"/>
<path d="M395.501 194.591H391.562C391.3 194.59 391.05 194.494 390.866 194.322C390.681 194.151 390.577 193.918 390.577 193.676V192.456C390.577 192.214 390.681 191.981 390.866 191.81C391.05 191.638 391.3 191.542 391.562 191.541H395.501C395.762 191.542 396.012 191.638 396.197 191.81C396.381 191.981 396.485 192.214 396.486 192.456V193.676C396.485 193.918 396.381 194.151 396.197 194.322C396.012 194.494 395.762 194.59 395.501 194.591Z" fill="#6C63FF"/>
<path d="M423.075 203.129H419.136C418.875 203.129 418.624 203.033 418.44 202.861C418.255 202.69 418.151 202.457 418.151 202.214V200.995C418.151 200.752 418.255 200.52 418.44 200.348C418.624 200.177 418.875 200.08 419.136 200.08H423.075C423.336 200.08 423.586 200.177 423.771 200.348C423.956 200.52 424.06 200.752 424.06 200.995V202.214C424.06 202.457 423.956 202.69 423.771 202.861C423.586 203.033 423.336 203.129 423.075 203.129Z" fill="#6C63FF"/>
<path d="M418.67 200.506L418.622 200.483C410.088 195.478 399.897 191.483 387.466 188.268L387.462 188.266C387.166 188.154 386.897 187.988 386.671 187.779C386.444 187.57 386.265 187.322 386.142 187.048C386.019 186.774 385.956 186.48 385.957 186.184C385.957 185.887 386.02 185.593 386.143 185.32L390.65 175.4C390.9 174.853 391.372 174.421 391.965 174.197C392.557 173.974 393.221 173.977 393.81 174.208C404.764 177.021 415.278 181.145 425.089 186.476L425.093 186.477C425.672 186.714 426.127 187.152 426.36 187.698C426.592 188.244 426.584 188.854 426.337 189.394L421.829 199.313C421.58 199.86 421.107 200.293 420.515 200.516C419.923 200.74 419.259 200.736 418.67 200.506Z" fill="white"/>
<path d="M418.67 200.506L418.622 200.483C410.088 195.478 399.897 191.483 387.466 188.268L387.462 188.266C387.166 188.154 386.897 187.988 386.671 187.779C386.444 187.57 386.265 187.322 386.142 187.048C386.019 186.774 385.956 186.48 385.957 186.184C385.957 185.887 386.02 185.593 386.143 185.32L390.65 175.4C390.9 174.853 391.372 174.421 391.965 174.197C392.557 173.974 393.221 173.977 393.81 174.208C404.764 177.021 415.278 181.145 425.089 186.476L425.093 186.477C425.672 186.714 426.127 187.152 426.36 187.698C426.592 188.244 426.584 188.854 426.337 189.394L421.829 199.313C421.58 199.86 421.107 200.293 420.515 200.516C419.923 200.74 419.259 200.736 418.67 200.506ZM409.207 179.798C404.133 177.798 398.917 176.123 393.597 174.783C393.383 174.695 393.152 174.648 392.919 174.643C392.685 174.639 392.452 174.678 392.234 174.757C392.017 174.836 391.818 174.955 391.65 175.106C391.482 175.257 391.348 175.438 391.255 175.638L386.748 185.557C386.567 185.955 386.564 186.404 386.74 186.804C386.915 187.205 387.254 187.524 387.682 187.693C400.124 190.908 410.364 194.923 418.949 199.953C419.376 200.113 419.854 200.111 420.28 199.947C420.706 199.783 421.045 199.47 421.224 199.076L425.732 189.157C425.912 188.758 425.915 188.31 425.74 187.909C425.565 187.509 425.226 187.189 424.797 187.021C419.765 184.318 414.559 181.906 409.207 179.798V179.798Z" fill="#6C63FF"/>
<path d="M406.455 191.153C408.993 191.153 411.051 189.241 411.051 186.883C411.051 184.525 408.993 182.614 406.455 182.614C403.917 182.614 401.859 184.525 401.859 186.883C401.859 189.241 403.917 191.153 406.455 191.153Z" fill="#6C63FF"/>
<path d="M396.501 180.559L392.872 179.136C392.632 179.041 392.442 178.862 392.343 178.637C392.245 178.413 392.247 178.161 392.348 177.937L392.859 176.814C392.96 176.59 393.153 176.413 393.395 176.322C393.637 176.231 393.908 176.232 394.149 176.326L397.778 177.75C398.018 177.844 398.209 178.023 398.307 178.248C398.405 178.473 398.403 178.725 398.302 178.948L397.792 180.072C397.69 180.295 397.497 180.472 397.255 180.563C397.013 180.655 396.742 180.653 396.501 180.559Z" fill="#6C63FF"/>
<path d="M418.331 198.387L414.702 196.964C414.461 196.869 414.271 196.69 414.173 196.465C414.074 196.241 414.076 195.989 414.177 195.765L414.688 194.642C414.79 194.418 414.983 194.241 415.225 194.15C415.467 194.059 415.738 194.06 415.978 194.154L419.607 195.578C419.848 195.672 420.038 195.851 420.136 196.076C420.234 196.301 420.233 196.553 420.132 196.776L419.621 197.9C419.519 198.123 419.326 198.3 419.084 198.391C418.842 198.483 418.571 198.481 418.331 198.387Z" fill="#6C63FF"/>
<path d="M427.714 194.612C428.541 194.149 429.248 193.524 429.787 192.78C430.326 192.036 430.682 191.192 430.832 190.306C430.981 189.42 430.919 188.515 430.651 187.653C430.383 186.792 429.915 185.996 429.28 185.321L440.906 166.391L428.74 167.121L419.565 184.985C418.415 186.052 417.726 187.473 417.628 188.98C417.531 190.487 418.032 191.974 419.036 193.161C420.041 194.347 421.479 195.15 423.078 195.418C424.677 195.685 426.327 195.398 427.714 194.612V194.612Z" fill="#FFB6B6"/>
<path d="M517.213 323.661H509.164L505.335 294.82L517.214 294.821L517.213 323.661Z" fill="#FFB6B6"/>
<path d="M519.266 330.909L493.312 330.908V330.603C493.313 328.114 494.377 325.728 496.271 323.968C498.166 322.208 500.735 321.219 503.414 321.219H503.415L519.266 321.22L519.266 330.909Z" fill="#2F2E41"/>
<path d="M462.064 323.661H454.015L450.186 294.82L462.066 294.821L462.064 323.661Z" fill="#FFB6B6"/>
<path d="M464.117 330.909L438.164 330.908V330.603C438.164 328.114 439.228 325.728 441.123 323.968C443.017 322.208 445.586 321.219 448.265 321.219H448.266L464.117 321.22L464.117 330.909Z" fill="#2F2E41"/>
<path d="M441.367 167.204C441.367 167.204 439.153 196.492 443.513 211.242C447.874 225.992 448.652 315.193 448.652 315.193H463.268L475.936 193.772L505.14 315.621L519.061 314.732L511.426 171.149L441.367 167.204Z" fill="#2F2E41"/>
<path d="M505.387 68.4759L494.213 60.9016L475.491 64.6887L470.423 75.8756L461.69 79.8978C458.819 81.2204 456.336 83.1708 454.455 85.5815C452.574 87.9922 451.351 90.7911 450.892 93.7377L438.416 173.771L511.426 171.149L520.265 76.8945C520.357 75.9099 520.236 74.9181 519.909 73.9778C519.581 73.0375 519.054 72.1678 518.358 71.4202C517.662 70.6726 516.812 70.0623 515.858 69.6253C514.903 69.1883 513.864 68.9337 512.802 68.8763L505.387 68.4759Z" fill="#E4E4E4"/>
<path d="M457.07 86.1493L450.327 94.5939L420.956 177.811L434.724 182.932L456.768 144.154L457.07 86.1493Z" fill="#E4E4E4"/>
<path d="M481.212 56.0079C493.553 56.0079 503.558 46.7138 503.558 35.2488C503.558 23.7839 493.553 14.4897 481.212 14.4897C468.87 14.4897 458.865 23.7839 458.865 35.2488C458.865 46.7138 468.87 56.0079 481.212 56.0079Z" fill="#2F2E41"/>
<path d="M481.514 56.9472C490.52 56.9472 497.821 50.165 497.821 41.7987C497.821 33.4324 490.52 26.6501 481.514 26.6501C472.508 26.6501 465.207 33.4324 465.207 41.7987C465.207 50.165 472.508 56.9472 481.514 56.9472Z" fill="#FFB9B9"/>
<path d="M493.895 39.8351C483.512 36.3559 479.998 34.2185 468.529 39.8351L464.301 24.1255H498.123L493.895 39.8351Z" fill="#2F2E41"/>
<path d="M479.4 26.3697C486.405 26.3697 492.083 21.0946 492.083 14.5875C492.083 8.08036 486.405 2.8053 479.4 2.8053C472.395 2.8053 466.717 8.08036 466.717 14.5875C466.717 21.0946 472.395 26.3697 479.4 26.3697Z" fill="#2F2E41"/>
<path d="M464.301 11.7822C464.302 8.75637 465.558 5.84727 467.807 3.65866C470.056 1.47006 473.126 0.170003 476.38 0.0283189C476.179 0.0194754 475.98 0 475.776 0C472.412 0 469.186 1.24133 466.808 3.45092C464.429 5.66051 463.093 8.65735 463.093 11.7822C463.093 14.907 464.429 17.9039 466.808 20.1134C469.186 22.323 472.412 23.5644 475.776 23.5644C475.98 23.5644 476.179 23.5449 476.38 23.536C473.126 23.3944 470.056 22.0943 467.807 19.9057C465.558 17.7171 464.302 14.808 464.301 11.7822Z" fill="#2F2E41"/>
<path opacity="0.1" d="M510.839 90.9419L506.289 133.076L490.221 162.495L510.839 90.9419Z" fill="black"/>
<path d="M29.8722 220.621H25.933V223.67H29.8722V220.621Z" fill="#F0F0F0"/>
<path d="M402.473 223.67H394.711V220.621H402.473V223.67ZM386.948 223.67H379.185V220.621H386.948V223.67ZM371.423 223.67H363.661V220.621H371.423V223.67ZM355.898 223.67H348.135V220.621H355.898V223.67ZM340.373 223.67H332.611V220.621H340.373V223.67ZM324.848 223.67H317.086V220.621H324.848L324.848 223.67ZM309.323 223.67H301.561V220.621H309.323V223.67ZM293.798 223.67H286.036V220.621H293.798V223.67ZM278.273 223.67H270.511V220.621H278.273V223.67ZM262.748 223.67H254.985V220.621H262.748L262.748 223.67ZM247.223 223.67H239.46V220.621H247.223L247.223 223.67ZM231.698 223.67H223.935V220.621H231.698L231.698 223.67ZM216.173 223.67H208.41V220.621H216.173L216.173 223.67ZM200.648 223.67H192.885V220.621H200.648L200.648 223.67ZM185.123 223.67H177.36V220.621H185.123L185.123 223.67ZM169.598 223.67H161.835V220.621H169.598L169.598 223.67ZM154.073 223.67H146.31V220.621H154.073L154.073 223.67ZM138.548 223.67H130.785V220.621H138.548L138.548 223.67ZM123.022 223.67H115.26V220.621H123.022L123.022 223.67ZM107.497 223.67H99.7351V220.621H107.497L107.497 223.67ZM91.9722 223.67H84.2101V220.621H91.9724L91.9722 223.67ZM76.4472 223.67H68.6848V220.621H76.4475L76.4472 223.67ZM60.9222 223.67H53.1598V220.621H60.9225L60.9222 223.67ZM45.3972 223.67H37.6348V220.621H45.3974L45.3972 223.67Z" fill="#F0F0F0"/>
<path d="M29.8722 143.164H25.933V146.214H29.8722V143.164Z" fill="#F0F0F0"/>
<path d="M402.473 146.214H394.711V143.164H402.473V146.214ZM386.948 146.214H379.185V143.164H386.948V146.214ZM371.423 146.214H363.661V143.164H371.423V146.214ZM355.898 146.214H348.135V143.164H355.898V146.214ZM340.373 146.214H332.611V143.164H340.373V146.214ZM324.848 146.214H317.086V143.164H324.848L324.848 146.214ZM309.323 146.214H301.561V143.164H309.323V146.214ZM293.798 146.214H286.036V143.164H293.798V146.214ZM278.273 146.214H270.511V143.164H278.273V146.214ZM262.748 146.214H254.985V143.164H262.748L262.748 146.214ZM247.223 146.214H239.46V143.164H247.223L247.223 146.214ZM231.698 146.214H223.935V143.164H231.698L231.698 146.214ZM216.173 146.214H208.41V143.164H216.173L216.173 146.214ZM200.648 146.214H192.885V143.164H200.648L200.648 146.214ZM185.123 146.214H177.36V143.164H185.123L185.123 146.214ZM169.598 146.214H161.835V143.164H169.598L169.598 146.214ZM154.073 146.214H146.31V143.164H154.073L154.073 146.214ZM138.548 146.214H130.785V143.164H138.548L138.548 146.214ZM123.022 146.214H115.26V143.164H123.022L123.022 146.214ZM107.497 146.214H99.7351V143.164H107.497L107.497 146.214ZM91.9722 146.214H84.2101V143.164H91.9724L91.9722 146.214ZM76.4472 146.214H68.6848V143.164H76.4475L76.4472 146.214ZM60.9222 146.214H53.1598V143.164H60.9225L60.9222 146.214ZM45.3972 146.214H37.6348V143.164H45.3974L45.3972 146.214Z" fill="#F0F0F0"/>
<path d="M29.8722 65.708H25.933V68.7575H29.8722V65.708Z" fill="#F0F0F0"/>
<path d="M402.473 68.7575H394.711V65.708H402.473V68.7575ZM386.948 68.7575H379.185V65.708H386.948V68.7575ZM371.423 68.7575H363.661V65.708H371.423V68.7575ZM355.898 68.7575H348.135V65.708H355.898V68.7575ZM340.373 68.7575H332.611V65.708H340.373V68.7575ZM324.848 68.7575H317.086V65.708H324.848L324.848 68.7575ZM309.323 68.7575H301.561V65.708H309.323V68.7575ZM293.798 68.7575H286.036V65.708H293.798V68.7575ZM278.273 68.7575H270.511V65.708H278.273V68.7575ZM262.748 68.7575H254.985V65.708H262.748L262.748 68.7575ZM247.223 68.7575H239.46V65.708H247.223L247.223 68.7575ZM231.698 68.7575H223.935V65.708H231.698L231.698 68.7575ZM216.173 68.7575H208.41V65.708H216.173L216.173 68.7575ZM200.648 68.7575H192.885V65.708H200.648L200.648 68.7575ZM185.123 68.7575H177.36V65.708H185.123L185.123 68.7575ZM169.598 68.7575H161.835V65.708H169.598L169.598 68.7575ZM154.073 68.7575H146.31V65.708H154.073L154.073 68.7575ZM138.548 68.7575H130.785V65.708H138.548L138.548 68.7575ZM123.022 68.7575H115.26V65.708H123.022L123.022 68.7575ZM107.497 68.7575H99.7351V65.708H107.497L107.497 68.7575ZM91.9722 68.7575H84.2101V65.708H91.9724L91.9722 68.7575ZM76.4472 68.7575H68.6848V65.708H76.4475L76.4472 68.7575ZM60.9222 68.7575H53.1598V65.708H60.9225L60.9222 68.7575ZM45.3972 68.7575H37.6348V65.708H45.3974L45.3972 68.7575Z" fill="#F0F0F0"/>
<path d="M154.285 221.536H122.115V331.317H154.285V221.536Z" fill="#3F3D56"/>
<path d="M160.194 221.536H128.024V331.317H160.194V221.536Z" fill="#6C63FF"/>
<path d="M230.443 144.079H198.273V331.317H230.443V144.079Z" fill="#3F3D56"/>
<path d="M236.351 144.079H204.181V331.317H236.351V144.079Z" fill="#6C63FF"/>
<path d="M306.6 66.6228H274.43V331.317H306.6V66.6228Z" fill="#3F3D56"/>
<path d="M312.509 66.6228H280.339V331.317H312.509V66.6228Z" fill="#6C63FF"/>
<path d="M26.2613 74.5514C30.6124 74.5514 34.1396 71.2747 34.1396 67.2327C34.1396 63.1906 30.6124 59.9139 26.2613 59.9139C21.9101 59.9139 18.3829 63.1906 18.3829 67.2327C18.3829 71.2747 21.9101 74.5514 26.2613 74.5514Z" fill="#F0F0F0"/>
<path d="M26.2613 152.008C30.6124 152.008 34.1396 148.731 34.1396 144.689C34.1396 140.647 30.6124 137.37 26.2613 137.37C21.9101 137.37 18.3829 140.647 18.3829 144.689C18.3829 148.731 21.9101 152.008 26.2613 152.008Z" fill="#F0F0F0"/>
<path d="M26.2613 229.464C30.6124 229.464 34.1396 226.188 34.1396 222.146C34.1396 218.104 30.6124 214.827 26.2613 214.827C21.9101 214.827 18.3829 218.104 18.3829 222.146C18.3829 226.188 21.9101 229.464 26.2613 229.464Z" fill="#F0F0F0"/>
<path d="M583 330.633H0V332H583V330.633Z" fill="#3F3D56"/>
<path d="M491.897 191.541L491.844 191.537C481.886 190.01 470.825 190.01 458.027 191.539H458.022C457.703 191.542 457.386 191.487 457.089 191.376C456.793 191.266 456.524 191.102 456.296 190.893C456.068 190.685 455.887 190.438 455.763 190.164C455.639 189.891 455.575 189.598 455.573 189.301V178.534C455.574 177.94 455.828 177.371 456.281 176.951C456.733 176.531 457.346 176.295 457.985 176.294C469.255 174.929 480.668 174.93 491.938 176.296H491.942C492.574 176.305 493.177 176.545 493.62 176.964C494.063 177.383 494.311 177.947 494.309 178.534V189.301C494.308 189.895 494.054 190.464 493.602 190.884C493.15 191.304 492.537 191.541 491.897 191.541Z" fill="white"/>
<path d="M491.897 191.541L491.844 191.537C481.886 190.01 470.825 190.01 458.027 191.539H458.022C457.703 191.542 457.386 191.487 457.089 191.376C456.793 191.266 456.524 191.102 456.296 190.893C456.068 190.685 455.887 190.438 455.763 190.164C455.639 189.891 455.575 189.598 455.573 189.301V178.534C455.574 177.94 455.828 177.371 456.281 176.951C456.733 176.531 457.346 176.295 457.985 176.294C469.255 174.929 480.668 174.93 491.938 176.296H491.942C492.574 176.305 493.177 176.545 493.62 176.964C494.063 177.383 494.311 177.947 494.309 178.534V189.301C494.308 189.895 494.054 190.464 493.602 190.884C493.15 191.304 492.537 191.541 491.897 191.541ZM474.511 175.882C468.998 175.873 463.492 176.213 458.03 176.901C457.796 176.897 457.564 176.937 457.346 177.017C457.129 177.098 456.931 177.217 456.764 177.369C456.596 177.521 456.463 177.702 456.371 177.902C456.28 178.102 456.232 178.317 456.23 178.534V189.301C456.23 189.733 456.416 190.148 456.745 190.453C457.074 190.759 457.52 190.931 457.985 190.931C470.794 189.399 481.909 189.399 491.923 190.931C492.384 190.924 492.823 190.75 493.147 190.445C493.47 190.14 493.652 189.729 493.652 189.301V178.534C493.652 178.102 493.467 177.688 493.138 177.382C492.809 177.076 492.362 176.904 491.897 176.904C486.13 176.232 480.323 175.891 474.511 175.882Z" fill="#6C63FF"/>
<path d="M474.941 187.673C477.479 187.673 479.537 185.761 479.537 183.404C479.537 181.046 477.479 179.134 474.941 179.134C472.403 179.134 470.345 181.046 470.345 183.404C470.345 185.761 472.403 187.673 474.941 187.673Z" fill="#6C63FF"/>
<path d="M463.124 181.173H459.184C458.923 181.173 458.673 181.076 458.488 180.905C458.304 180.733 458.2 180.501 458.2 180.258V179.038C458.2 178.796 458.304 178.563 458.488 178.392C458.673 178.22 458.923 178.124 459.184 178.124H463.124C463.385 178.124 463.635 178.22 463.82 178.392C464.004 178.563 464.108 178.796 464.108 179.038V180.258C464.108 180.501 464.004 180.733 463.82 180.905C463.635 181.076 463.385 181.173 463.124 181.173Z" fill="#6C63FF"/>
<path d="M490.698 189.712H486.759C486.498 189.711 486.247 189.615 486.063 189.443C485.878 189.272 485.774 189.039 485.774 188.797V187.577C485.774 187.334 485.878 187.102 486.063 186.93C486.247 186.759 486.498 186.662 486.759 186.662H490.698C490.959 186.662 491.209 186.759 491.394 186.93C491.579 187.102 491.682 187.334 491.683 187.577V188.797C491.682 189.039 491.579 189.272 491.394 189.443C491.209 189.615 490.959 189.711 490.698 189.712Z" fill="#6C63FF"/>
<path d="M484.516 177.428C484.449 176.534 484.593 175.636 484.939 174.8C485.285 173.963 485.825 173.206 486.52 172.584C487.214 171.962 488.048 171.488 488.961 171.198C489.874 170.907 490.844 170.806 491.804 170.901L501.808 151.187L508.152 160.858L497.679 178.096C497.4 179.583 496.543 180.924 495.272 181.863C494 182.803 492.401 183.276 490.778 183.194C489.156 183.111 487.622 182.479 486.468 181.416C485.314 180.354 484.619 178.935 484.516 177.428Z" fill="#FFB6B6"/>
<path d="M511.715 74.3089L515.835 69.3176C515.835 69.3176 525.874 67.4183 527.579 80.2269L526.505 137.17L504.507 169.334L490.221 165.945L508.9 127.737L511.715 74.3089Z" fill="#E4E4E4"/>
</svg>
