<svg width="735" height="437" viewBox="0 0 735 437" fill="none" xmlns="http://www.w3.org/2000/svg">
<g clip-path="url(#clip0)">
<path d="M685.214 411.249C685.015 419.108 683.77 426.899 681.516 434.391C681.466 434.565 681.41 434.736 681.356 434.91H667.556C667.57 434.754 667.585 434.58 667.6 434.391C668.52 423.204 663.263 355.928 656.92 344.284C657.476 345.228 686.284 375.702 685.214 411.249Z" fill="#F1F1F1"/>
<path d="M684.179 434.391C684.063 434.565 683.943 434.739 683.82 434.91H673.467C673.545 434.762 673.636 434.588 673.742 434.391C675.452 431.127 680.514 421.367 685.213 411.249C690.261 400.376 694.896 389.09 694.506 385.006C694.627 385.926 698.121 414.01 684.179 434.391Z" fill="#F1F1F1"/>
<path d="M38.1923 417.337C38.3402 423.174 39.2649 428.96 40.9391 434.525C40.9761 434.654 41.0173 434.781 41.0575 434.91H51.3069C51.2962 434.794 51.285 434.665 51.2743 434.525C50.5909 426.216 54.495 376.251 59.2061 367.603C58.7933 368.304 37.3976 390.937 38.1923 417.337Z" fill="#F1F1F1"/>
<path d="M38.9614 434.525C39.0472 434.654 39.1363 434.783 39.2276 434.91H46.917C46.8587 434.8 46.7912 434.671 46.7129 434.525C45.4427 432.1 41.683 424.852 38.1931 417.337C34.4441 409.262 31.0018 400.88 31.2917 397.847C31.2018 398.53 28.6065 419.388 38.9614 434.525Z" fill="#F1F1F1"/>
<path d="M538.929 306.377C461.517 271.683 391.483 273.002 325.515 294.178C223.874 275.405 154.274 278.31 109.63 306.377V219.237H538.929V306.377Z" fill="#CBCBCB"/>
<path d="M538.929 282.414C467.611 248.239 396.379 246.033 324.073 282.414C250.015 259.863 178.421 260.099 109.218 282.414V17.5059C182.795 -5.71796 254.367 -5.15987 324.073 17.5059C397.706 -5.08159 469.389 -5.79795 538.929 17.5059V282.414Z" fill="#E5E5E5"/>
<path d="M128.545 50.3807L126.146 43.8872C127.086 43.4988 149.553 34.3132 182.526 29.6277C213.011 25.2949 258.429 24.2606 301.686 43.9315L299.082 50.336C257.271 31.3233 213.196 32.3245 183.583 36.5113C151.351 41.0696 128.769 50.2879 128.545 50.3807Z" fill="white"/>
<path d="M128.545 74.7801L126.146 68.2867C127.086 67.8982 149.553 58.7127 182.526 54.0271C213.011 49.6948 258.429 48.6604 301.686 68.3309L299.082 74.7354C257.271 55.7227 213.196 56.7231 183.583 60.9108C151.351 65.469 128.769 74.6873 128.545 74.7801Z" fill="white"/>
<path d="M128.545 99.1795L126.146 92.6861C127.086 92.2976 149.553 83.1121 182.526 78.4265C213.011 74.0938 258.429 73.0594 301.686 92.7303L299.082 99.1348C257.271 80.1221 213.196 81.1225 183.583 85.3102C151.351 89.8684 128.769 99.0867 128.545 99.1795Z" fill="white"/>
<path d="M128.545 123.579L126.146 117.085C127.086 116.697 149.553 107.511 182.526 102.826C213.011 98.4941 258.429 97.4584 301.686 117.13L299.082 123.534C257.271 104.522 213.196 105.522 183.583 109.71C151.351 114.268 128.769 123.486 128.545 123.579Z" fill="white"/>
<path d="M128.545 147.978L126.146 141.485C127.086 141.096 149.553 131.911 182.526 127.225C213.011 122.893 258.429 121.858 301.686 141.529L299.082 147.934C257.271 128.921 213.196 129.922 183.583 134.109C151.351 138.667 128.769 147.886 128.545 147.978Z" fill="white"/>
<path d="M128.545 172.378L126.146 165.884C127.086 165.496 149.553 156.31 182.526 151.625C213.011 147.293 258.429 146.258 301.686 165.929L299.082 172.333C257.271 153.32 213.196 154.322 183.583 158.508C151.351 163.067 128.769 172.285 128.545 172.378Z" fill="white"/>
<path d="M343.606 223.791L341.207 217.297C342.148 216.909 364.615 207.723 397.588 203.038C428.072 198.706 473.49 197.671 516.747 217.342L514.143 223.746C472.333 204.733 428.258 205.735 398.645 209.921C366.413 214.48 343.831 223.698 343.606 223.791Z" fill="#FFBA6F"/>
<path d="M341.583 176.964V43.6996L343.896 42.9354C402.518 23.57 460.855 23.5738 517.287 42.9469L519.565 43.7289V176.786L515.106 175.006C456.38 151.566 399.532 151.552 346.142 174.965L341.583 176.964ZM428.566 150.429C456.158 150.429 484.293 155.868 512.973 166.746V48.8067C459.32 30.9127 403.896 30.9225 348.175 48.8353V166.585C373.778 155.917 401.049 150.437 428.566 150.429Z" fill="white"/>
<path d="M513.11 220.338L513.974 198.16L543.593 135.881C544.428 134.11 545.79 132.678 547.469 131.805C548.497 131.263 549.617 130.943 550.764 130.864C551.91 130.784 553.06 130.948 554.147 131.344C555.405 131.803 556.546 132.563 557.48 133.565C558.415 134.566 559.118 135.783 559.535 137.12C559.714 137.697 559.84 138.291 559.91 138.893C560.121 140.682 559.822 142.496 559.052 144.103L529.392 206.466L513.11 220.338Z" fill="#FFBA6F"/>
<path d="M551.157 131.281L519.006 198.885L516.554 197.581L547.651 132.196C548.741 131.619 549.939 131.307 551.157 131.281Z" fill="#3F3D56"/>
<path d="M559.502 138.948L528.575 203.975L526.124 202.672L558.209 135.208C558.604 135.844 558.918 136.533 559.144 137.256C559.314 137.807 559.434 138.373 559.502 138.948Z" fill="#3F3D56"/>
<path d="M556.423 133.146L523.916 201.497L521.464 200.193L554.012 131.756C554.359 131.882 554.697 132.032 555.025 132.207C555.519 132.47 555.987 132.785 556.423 133.146Z" fill="#3F3D56"/>
<path d="M516.829 216.611L513.557 219.398L513.832 212.052C514.955 212.464 516.171 214.252 516.829 216.611Z" fill="#3F3D56"/>
<path d="M194.194 296.665L190.278 284.103L194.45 242.797C194.564 241.625 195.04 240.524 195.803 239.665C196.269 239.134 196.831 238.707 197.454 238.409C198.078 238.11 198.752 237.946 199.437 237.927C200.229 237.904 201.016 238.074 201.736 238.426C202.456 238.777 203.09 239.3 203.587 239.953C203.801 240.235 203.989 240.539 204.148 240.859C204.62 241.81 204.813 242.888 204.702 243.955L200.525 285.317L194.194 296.665Z" fill="#FFBA6F"/>
<path d="M197.757 238.555L193.228 283.392L191.602 283.208L195.982 239.842C196.476 239.279 197.082 238.839 197.757 238.555Z" fill="#3F3D56"/>
<path d="M203.931 240.98L199.575 284.109L197.949 283.925L202.469 239.181C202.815 239.448 203.127 239.763 203.396 240.116C203.6 240.385 203.78 240.675 203.931 240.98Z" fill="#3F3D56"/>
<path d="M201.063 238.427L196.485 283.76L194.859 283.576L199.443 238.186C199.662 238.179 199.88 238.188 200.097 238.213C200.425 238.251 200.749 238.322 201.063 238.427Z" fill="#3F3D56"/>
<path d="M195.529 293.762L194.257 296.041L192.953 291.883C193.661 291.864 194.694 292.592 195.529 293.762Z" fill="#3F3D56"/>
<path d="M618.356 281.934C617.91 282.759 617.314 283.483 616.604 284.065C615.893 284.646 615.081 285.074 614.214 285.324C612.462 285.829 610.593 285.577 609.018 284.624C607.442 283.671 606.289 282.096 605.812 280.244C605.335 278.392 605.573 276.415 606.474 274.749C606.489 274.721 606.504 274.693 606.52 274.665C606.711 274.325 606.927 274.002 607.165 273.698L601.408 230.305L601.236 229.005L600.066 220.151L599.894 218.875L600.531 218.906L611.685 219.445L614.675 219.588L615.05 227.666L617.171 273.079C618.28 274.201 618.999 275.683 619.214 277.29C619.429 278.896 619.126 280.531 618.356 281.934H618.356Z" fill="#FFB8B8"/>
<path d="M601.269 229.398L615.432 228.025C616.166 227.951 616.844 227.573 617.316 226.974C617.788 226.374 618.017 225.602 617.953 224.824L615.33 193.678C615.077 190.678 613.707 187.907 611.522 185.975C609.337 184.043 606.516 183.108 603.679 183.376C600.842 183.644 598.223 185.093 596.396 187.403C594.569 189.714 593.685 192.697 593.938 195.697C593.956 195.912 593.98 196.126 594.01 196.339L598.257 226.889C598.354 227.589 598.686 228.229 599.192 228.692C599.698 229.155 600.345 229.41 601.014 229.411C601.099 229.413 601.184 229.408 601.269 229.398Z" fill="#CBCBCB"/>
<path d="M612.004 204.236C613.436 199.945 613.503 195.276 612.193 190.941C610.883 186.607 608.269 182.844 604.749 180.226C599.408 176.362 592.1 174.975 584.229 184.884C574.705 196.98 567.912 211.213 564.366 226.5L596.597 232.049C596.597 232.049 607.558 217.88 612.004 204.236Z" fill="#CBCBCB"/>
<path d="M559.874 427.464H550.684L546.313 389.979H559.875L559.874 427.464Z" fill="#FFB8B8"/>
<path d="M532.964 436.488H561.845V424.687H544.122C541.163 424.687 538.325 425.93 536.232 428.143C534.139 430.356 532.964 433.358 532.964 436.488Z" fill="#2F2E41"/>
<path d="M635.426 418.988L626.701 422.039L611.424 387.899L624.302 383.397L635.426 418.988Z" fill="#FFB8B8"/>
<path d="M612.551 436.488L639.973 426.902L636.471 415.698L619.644 421.58C616.834 422.562 614.508 424.684 613.178 427.48C611.848 430.276 611.622 433.516 612.551 436.488Z" fill="#2F2E41"/>
<path d="M591.771 170.398C601.938 170.398 610.181 161.681 610.181 150.928C610.181 140.176 601.938 131.459 591.771 131.459C581.603 131.459 573.361 140.176 573.361 150.928C573.361 161.681 581.603 170.398 591.771 170.398Z" fill="#FFB8B8"/>
<path d="M575.651 417.03L584.185 357.463C584.276 356.827 584.573 356.245 585.026 355.815C585.478 355.385 586.057 355.135 586.664 355.107C587.272 355.079 587.87 355.275 588.356 355.661C588.842 356.047 589.186 356.6 589.329 357.225L602.325 413.992C602.53 414.861 603.034 415.619 603.74 416.115C604.445 416.612 605.301 416.811 606.138 416.675L641.986 410.582C642.462 410.502 642.915 410.314 643.317 410.033C643.718 409.751 644.057 409.382 644.312 408.951C644.568 408.519 644.732 408.034 644.796 407.529C644.859 407.025 644.819 406.512 644.68 406.024L597.936 243.045C597.803 242.582 597.788 242.09 597.89 241.619L599.446 234.484C599.617 233.711 599.538 232.899 599.222 232.179C598.906 231.459 598.371 230.871 597.702 230.51C591.337 227.075 575.215 219.934 563.049 227.756C562.654 228.011 562.312 228.348 562.044 228.747C561.776 229.145 561.588 229.598 561.491 230.076L524.975 411.58C524.875 412.074 524.876 412.584 524.977 413.077C525.078 413.571 525.277 414.035 525.56 414.441C525.844 414.847 526.205 415.185 526.621 415.433C527.037 415.68 527.498 415.831 527.973 415.876L572.015 420.047C572.115 420.057 572.215 420.061 572.315 420.061C573.121 420.06 573.901 419.753 574.512 419.197C575.124 418.641 575.527 417.872 575.649 417.029L575.651 417.03Z" fill="#2F2E41"/>
<path d="M603.978 137.173C602.591 136.29 601.359 135.158 600.339 133.827C599.836 133.155 599.504 132.357 599.377 131.51C599.25 130.663 599.331 129.796 599.612 128.992C600.542 126.822 603.306 126.138 605.448 126.875C607.59 127.611 609.245 129.389 610.81 131.102C612.188 132.608 613.606 134.187 614.258 136.168C614.909 138.149 614.576 140.661 612.949 141.864C611.353 143.043 609.057 142.561 607.522 141.294C606.073 139.909 604.917 138.215 604.13 136.324L603.978 137.173Z" fill="#2F2E41"/>
<path d="M610.214 131.625C610.316 126.14 616.228 122.206 621.335 123.178C626.442 124.151 630.367 128.755 632.331 133.833C636.482 144.562 633.367 156.805 629.367 167.602C625.367 178.399 620.417 189.353 621.001 200.929C621.396 207.186 623.381 213.215 626.748 218.377C630.114 223.54 634.736 227.645 640.126 230.259C634.363 233.022 627.475 230.168 622.632 225.861C611.877 216.297 607.726 199.269 612.767 185.399C615.253 178.557 619.635 172.704 623.056 166.33C626.477 159.956 628.988 152.443 627.221 145.356C625.454 138.268 617.937 132.531 611.511 135.272L610.214 131.625Z" fill="#2F2E41"/>
<path d="M590.667 159.568C592.272 156.7 593.89 152.935 590.958 150.427C590.32 149.907 589.59 149.527 588.811 149.309C588.032 149.091 587.22 149.04 586.423 149.159C583.116 149.581 579.514 149.754 576.313 148.484C575.112 148.047 574.007 147.359 573.062 146.462C572.118 145.564 571.353 144.475 570.815 143.259C569.165 139.118 571.231 134.086 574.686 131.468C576.8 129.925 579.297 129.076 581.865 129.028C584.433 128.98 586.957 129.735 589.121 131.198C593.596 129.108 599.025 130.038 603.091 132.915C607.156 135.793 609.938 140.4 611.449 145.321C612.841 149.556 613.081 154.119 612.141 158.491C611.385 161.533 609.946 164.337 607.948 166.666C605.95 168.995 603.45 170.781 600.661 171.871C599.574 172.325 598.394 172.468 597.239 172.287C596.084 172.106 594.994 171.607 594.078 170.841C592.59 169.429 591.447 167.658 590.747 165.677C590.136 163.508 589.81 161.1 590.667 159.568Z" fill="#2F2E41"/>
<path d="M536.052 176.941C536.144 177.368 536.204 177.803 536.231 178.241L568.43 197.885L576.256 193.12L584.6 204.672L571.52 214.531C570.463 215.328 569.19 215.741 567.893 215.707C566.595 215.674 565.343 215.196 564.324 214.346L531.118 186.644C529.619 187.231 527.987 187.322 526.438 186.904C524.889 186.486 523.498 185.579 522.448 184.304C521.399 183.029 520.741 181.446 520.563 179.767C520.385 178.087 520.695 176.389 521.451 174.9C522.208 173.411 523.375 172.201 524.798 171.43C526.22 170.66 527.831 170.366 529.416 170.588C531.001 170.809 532.484 171.536 533.668 172.671C534.853 173.805 535.683 175.295 536.047 176.941L536.052 176.941Z" fill="#FFB8B8"/>
<path d="M569.507 198.816L579.914 213.08C580.21 213.485 580.586 213.818 581.014 214.057C581.443 214.295 581.915 214.433 582.399 214.461C582.882 214.489 583.366 214.406 583.817 214.219C584.268 214.032 584.675 213.744 585.011 213.375L596.792 200.438C597.783 199.663 598.62 198.688 599.254 197.57C599.888 196.452 600.308 195.213 600.488 193.924C600.669 192.634 600.607 191.32 600.306 190.055C600.006 188.791 599.472 187.602 598.736 186.556C598 185.51 597.076 184.629 596.017 183.961C594.959 183.293 593.786 182.853 592.566 182.666C591.346 182.479 590.103 182.548 588.909 182.869C587.714 183.191 586.591 183.759 585.604 184.54C585.503 184.62 585.402 184.702 585.304 184.787L570.528 193.524C570.105 193.774 569.738 194.118 569.452 194.532C569.166 194.946 568.968 195.42 568.871 195.922C568.774 196.424 568.78 196.943 568.89 197.442C568.999 197.942 569.209 198.41 569.505 198.816H569.507Z" fill="#CBCBCB"/>
<path d="M171.845 426.247L181.834 426.247L186.587 385.499L171.843 385.5L171.845 426.247Z" fill="#A0616A"/>
<path d="M169.297 422.798L188.97 422.797H188.971C192.295 422.797 195.484 424.194 197.835 426.681C200.186 429.167 201.507 432.539 201.508 436.056V436.486L169.297 436.488L169.297 422.798Z" fill="#2F2E41"/>
<path d="M94.0635 421.674L103.941 423.253L114.4 383.714L101.451 381.384L94.0635 421.674Z" fill="#A0616A"/>
<path d="M92.0312 417.861L111.483 420.97L111.484 420.97C114.772 421.496 117.727 423.382 119.7 426.212C121.673 429.042 122.503 432.585 122.006 436.062L121.945 436.488L90.0967 431.397L92.0312 417.861Z" fill="#2F2E41"/>
<path d="M124.864 224.309L135.955 227.382L135.217 246.399L135.126 281.024C136.219 281.823 137.056 282.954 137.528 284.268C137.999 285.582 138.083 287.016 137.767 288.381C137.451 289.745 136.751 290.977 135.759 291.911C134.767 292.846 133.53 293.44 132.211 293.616C130.893 293.791 129.556 293.539 128.376 292.892C127.196 292.246 126.23 291.237 125.604 289.997C124.979 288.757 124.724 287.346 124.874 285.95C125.023 284.553 125.57 283.238 126.442 282.178L123.034 247.426L124.864 224.309Z" fill="#A0616A"/>
<path d="M122.933 202.526C122.994 200.688 123.554 198.908 124.547 197.398C125.54 195.888 126.922 194.712 128.53 194.011C130.035 193.299 131.704 193.067 133.331 193.344C134.959 193.62 136.475 194.394 137.693 195.569C138.568 196.396 139.262 197.415 139.727 198.556C140.192 199.696 140.416 200.929 140.383 202.17C140.412 213.311 138.034 229.549 138.01 229.712L137.972 229.97L121.76 235.744L122.933 202.526Z" fill="#CBCBCB"/>
<path d="M151.921 234.15L176.718 227.362L188.18 268.188L188.588 420.279L169.625 420.153L161.699 297.055L111.18 410.8L90.8098 408.215L135.217 286.284C135.217 286.284 132.773 264.741 140.514 253.97L138.884 242.767L151.921 234.15Z" fill="#2F2E41"/>
<path d="M135.201 244.308C134.854 243.862 134.602 243.343 134.462 242.785C134.323 242.227 134.298 241.644 134.39 241.075L123.079 205.19C122.551 203.513 122.495 201.709 122.918 199.999C123.341 198.288 124.224 196.744 125.46 195.554L130.371 190.834L133.698 176.758L152.823 181.702L151.247 188.368L159.903 186.704L178.133 229.644L140.026 245.753L138.15 245.784C137.585 245.785 137.028 245.653 136.518 245.398C136.008 245.142 135.558 244.77 135.201 244.308Z" fill="#CBCBCB"/>
<path d="M161.746 214.009L172.673 210.336L181.662 226.826L199.085 256.141C200.413 256.198 201.693 256.681 202.755 257.525C203.818 258.368 204.613 259.533 205.036 260.865C205.459 262.197 205.489 263.634 205.123 264.984C204.758 266.335 204.012 267.537 202.987 268.43C201.961 269.323 200.703 269.866 199.38 269.987C198.056 270.108 196.729 269.801 195.574 269.107C194.418 268.412 193.49 267.364 192.911 266.099C192.331 264.834 192.129 263.414 192.33 262.025L171.884 234.581L161.746 214.009Z" fill="#A0616A"/>
<path d="M149.104 196.69C148.227 195.102 147.801 193.281 147.876 191.444C147.952 189.607 148.526 187.831 149.531 186.33C150.443 184.878 151.736 183.739 153.252 183.053C154.767 182.367 156.439 182.164 158.062 182.468C159.22 182.672 160.322 183.141 161.291 183.842C162.26 184.543 163.072 185.458 163.672 186.526C169.328 195.924 175.526 210.993 175.588 211.144L175.686 211.384L164.902 225.428L149.104 196.69Z" fill="#CBCBCB"/>
<path d="M147.848 174.139C156.24 174.139 163.043 166.944 163.043 158.069C163.043 149.194 156.24 141.999 147.848 141.999C139.456 141.999 132.653 149.194 132.653 158.069C132.653 166.944 139.456 174.139 147.848 174.139Z" fill="#A0616A"/>
<path d="M120.994 151.291C129.078 151.291 135.631 144.36 135.631 135.811C135.631 127.262 129.078 120.332 120.994 120.332C112.911 120.332 106.357 127.262 106.357 135.811C106.357 144.36 112.911 151.291 120.994 151.291Z" fill="#2F2E41"/>
<path d="M108.369 148.629C110.264 150.077 112.459 151.024 114.77 151.392C117.082 151.759 119.443 151.535 121.656 150.739C123.869 149.943 125.87 148.599 127.491 146.817C129.112 145.036 130.305 142.87 130.973 140.501C130.72 142.624 130.054 144.669 129.017 146.506C127.979 148.344 126.593 149.934 124.945 151.176C123.298 152.418 121.424 153.285 119.444 153.723C117.463 154.16 115.418 154.159 113.438 153.719C111.458 153.279 109.585 152.409 107.939 151.165C106.293 149.921 104.908 148.329 103.873 146.491C102.837 144.652 102.174 142.607 101.924 140.483C101.673 138.36 101.842 136.204 102.42 134.153C102.092 136.909 102.471 139.707 103.518 142.254C104.565 144.801 106.24 147.003 108.369 148.629Z" fill="#2F2E41"/>
<path d="M166.133 148.646C163.578 143.809 162.6 141.788 159.306 138.846C156.392 136.244 152.809 135.48 149.918 137.945C146.499 136.383 142.694 136.028 139.069 136.935C135.444 137.841 132.192 139.96 129.796 142.977C127.401 145.994 125.989 149.747 125.771 153.68C125.553 157.612 126.541 161.514 128.587 164.806C130.633 168.098 133.629 170.604 137.129 171.952C140.629 173.3 144.447 173.418 148.015 172.289C151.584 171.159 154.713 168.843 156.937 165.683C159.162 162.523 160.363 158.688 160.363 154.749C160.36 154.057 160.321 153.366 160.245 152.679C162.757 152.306 163.621 149.02 166.133 148.646Z" fill="#2F2E41"/>
<path d="M324.897 17.5059H323.249V281.576H324.897V17.5059Z" fill="#CBCBCB"/>
</g>
<defs>
<clipPath id="clip0">
<rect width="735" height="436.357" fill="white" transform="translate(0 0.295593)"/>
</clipPath>
</defs>
</svg>
